<svg width="25" height="25" viewBox="0 0 25 25" fill="none" xmlns="http://www.w3.org/2000/svg">
<path d="M12.2072 18.495C13.799 18.495 15.0897 19.785 15.09 21.3768C15.09 22.9688 13.7991 24.2596 12.2072 24.2596C10.6152 24.2596 9.32434 22.9688 9.32434 21.3768C9.32456 19.7851 10.6153 18.495 12.2072 18.495ZM2.49426 2.495C3.3501 1.63938 4.7391 1.63925 5.59485 2.495L12.2032 9.10632L18.8146 2.49695C19.6704 1.64117 21.0593 1.64124 21.9152 2.49695C22.7706 3.35279 22.7709 4.73987 21.9152 5.59558L17.5157 9.99304H22.1525C23.3641 9.99317 24.3468 10.9757 24.3468 12.1854C24.3467 12.1885 24.3458 12.1921 24.3458 12.1952C24.3459 12.1989 24.3468 12.2032 24.3468 12.2069C24.3465 13.4183 23.3639 14.4002 22.1525 14.4003H17.5148L21.9171 18.8007C22.7725 19.6565 22.7728 21.0436 21.9171 21.8993C21.0614 22.7547 19.6723 22.7546 18.8165 21.8993L12.2052 15.2899L5.59387 21.8993C4.73823 22.7544 3.34996 22.7543 2.49426 21.8993C1.63849 21.0435 1.63859 19.6565 2.49426 18.8007L6.89661 14.4003H2.26282C1.05127 14.4003 0.0688276 13.4164 0.0684814 12.2069V12.1854C0.0685158 10.9737 1.05108 9.99304 2.26282 9.99304H6.89563L2.49426 5.59363C1.63849 4.73786 1.63859 3.35082 2.49426 2.495ZM12.2072 0.157104C13.799 0.157104 15.0897 1.44717 15.09 3.03894C15.09 4.63093 13.7991 5.92175 12.2072 5.92175C10.6152 5.92172 9.32434 4.6309 9.32434 3.03894C9.3246 1.4472 10.6154 0.157139 12.2072 0.157104Z" fill="#0B0B0B"/>
</svg>
