<svg width="603" height="683" viewBox="0 0 603 683" fill="none" xmlns="http://www.w3.org/2000/svg">
<path d="M256.601 94.5066V163.323C256.601 168.188 253.125 171.664 248.259 171.664H171.102V86.1653H248.259C253.125 86.1653 256.601 89.6409 256.601 94.5066ZM9.14138 86.1653C4.2756 86.1653 0.800049 89.6409 0.800049 94.5066V163.323C0.800049 168.188 4.2756 171.664 9.14138 171.664H86.2987V86.1653H9.14138ZM86.2987 248.126C86.2987 252.992 89.7742 256.467 94.64 256.467H163.456C168.322 256.467 171.797 252.992 171.797 248.126V170.969H86.2987V248.126ZM171.102 9.00802C171.102 4.14224 167.627 0.666687 162.761 0.666687H93.9449C89.0791 0.666687 85.6036 4.14224 85.6036 9.00802V86.1653H171.102V9.00802Z" fill="white"/>
<path d="M264.937 256.467C260.072 256.467 256.596 259.942 256.596 264.808V674.228C256.596 679.094 260.072 682.57 264.937 682.57H337.924C342.79 682.57 346.265 679.094 346.265 674.228V520.609C346.265 515.743 349.741 512.267 354.607 512.267H508.226C513.092 512.267 516.567 508.792 516.567 503.926V435.11C516.567 430.244 513.092 426.769 508.226 426.769H354.607C349.741 426.769 346.265 423.293 346.265 418.428V349.612C346.265 344.746 349.741 341.27 354.607 341.27H593.725C598.591 341.27 602.066 337.795 602.066 332.929V264.808C602.066 259.942 598.591 256.467 593.725 256.467H264.937Z" fill="white"/>
</svg>
