<svg width="220" height="189" viewBox="0 0 220 189" fill="none" xmlns="http://www.w3.org/2000/svg">
<path d="M141.876 127.676C152.733 139.394 162.662 151.982 171.47 165.249L186.44 188.144L164.216 173.191C150.894 164.274 138.249 154.218 126.569 143.122L141.876 127.676ZM64.0498 80.3662L72.2295 88.6211L76.5518 92.9814L88.7441 105.286L91.9854 108.557L105.104 121.795L108.036 124.754L119.303 135.968C119.766 136.435 120.229 136.903 120.692 137.37C122.622 139.318 124.582 141.234 126.569 143.122L103.718 166.184H137.364C149.248 166.184 158.817 175.84 158.972 187.677H72.542L50.4717 165.405L28.4014 187.677H0.311523V94.2285H44.915L61.3643 77.6562L64.0498 80.3662ZM138.136 0.3125C146.315 8.87856 146.315 22.5838 137.981 30.9941L109.274 59.8076L110.663 61.21L137.364 34.2656H208.051C207.896 46.258 198.173 55.7588 186.443 55.7588H146.315L120.232 81.9238L121.621 83.3262L147.087 57.627H219.163C219.009 69.931 209.131 79.7432 196.938 79.7432H155.422L131.19 104.196L132.579 105.598L156.193 81.7686H186.289V160.266C174.56 160.11 164.99 150.298 164.99 138.461V104.352L141.876 127.676C139.987 125.637 138.07 123.625 136.126 121.64C135.817 121.328 135.355 120.86 135.046 120.549L123.471 108.868L120.538 105.909L107.419 92.6699L104.178 89.3994L87.6641 72.7344L86.7373 71.7998L79.4834 64.4795L76.9648 61.9385L138.136 0.3125ZM71.3037 56.2256L76.9648 61.9385L61.3643 77.6562L55.8701 72.1113L0 15.7305L15.5879 0L71.3037 56.2256Z" fill="white"/>
</svg>
