<svg width="666" height="667" viewBox="0 0 666 667" fill="none" xmlns="http://www.w3.org/2000/svg">
<path fill-rule="evenodd" clip-rule="evenodd" d="M0 666.126V565.727V555.255C0 500.014 45.1377 454.835 100.397 454.835V565.727H211.267C211.267 620.987 166.088 666.126 110.849 666.126H100.397H0Z" fill="white"/>
<path fill-rule="evenodd" clip-rule="evenodd" d="M634.084 119.138C568.332 5.24194 422.817 -33.8479 308.903 31.9671C110.186 146.706 222.66 432.186 286.211 634.116C290.531 647.757 300.735 657.282 314.602 660.718C328.53 664.092 342.005 660.348 352.127 650.246L587.444 414.925C587.876 414.452 588.329 414.122 588.781 413.629C669.367 340.037 690.928 217.521 634.084 119.138ZM428.989 151.438C476.163 151.438 514.389 189.685 514.389 236.86C514.389 284.015 476.163 322.24 428.989 322.24C381.835 322.24 343.61 284.015 343.61 236.86C343.61 189.685 381.835 151.438 428.989 151.438Z" fill="white" fill-opacity="0.9"/>
<path fill-rule="evenodd" clip-rule="evenodd" d="M546.888 31.9189C660.802 97.6929 699.809 243.169 634.057 357.065C519.32 555.868 233.825 443.309 31.8987 379.798C18.2587 375.457 8.73325 365.253 5.29752 351.427C1.9235 337.52 5.68842 324.003 15.7693 313.881L251.107 78.6005C251.58 78.1479 251.909 77.6953 252.362 77.2015C326.014 -3.32374 448.445 -24.9054 546.888 31.9189ZM429.004 151.452C476.157 151.452 514.383 189.678 514.383 236.853C514.383 284.008 476.157 322.233 429.004 322.233C381.829 322.233 343.604 284.008 343.604 236.853C343.604 189.678 381.829 151.452 429.004 151.452Z" fill="white" fill-opacity="0.9"/>
<path fill-rule="evenodd" clip-rule="evenodd" d="M590.245 63.8884C607.107 79.62 621.953 98.0869 634.084 119.1C639.357 128.226 643.955 137.56 647.894 147.044C671.783 204.555 671.428 267.558 650.279 323.048C645.842 334.605 640.444 345.966 634.057 357.028C553.239 497.061 387.7 482.612 226.321 439.636C183.355 278.266 168.938 112.746 308.903 31.9296C317.416 27.0114 326.105 22.6789 334.924 18.9198C370.395 3.91987 409.281 -2.42315 448.053 0.834053C473.907 3.05113 499.255 9.47704 523.029 19.8236C531.109 23.3558 539.074 27.3723 546.888 31.8828C562.836 41.091 577.316 51.8613 590.245 63.8884ZM514.389 236.822C514.389 189.647 476.163 151.401 428.989 151.401C404.324 151.401 382.102 161.865 366.515 178.599C352.3 193.851 343.604 214.316 343.604 236.817C343.604 256.366 350.174 274.381 361.228 288.774C376.835 309.1 401.382 322.203 428.989 322.203C476.163 322.203 514.389 283.977 514.389 236.822Z" fill="white"/>
</svg>
