<svg width="666" height="667" viewBox="0 0 666 667" fill="none" xmlns="http://www.w3.org/2000/svg">
<path fill-rule="evenodd" clip-rule="evenodd" d="M0 666.125V565.726V555.254C0 500.013 45.1377 454.834 100.397 454.834V565.726H211.267C211.267 620.986 166.088 666.125 110.849 666.125H100.397H0Z" fill="#525252"/>
<path fill-rule="evenodd" clip-rule="evenodd" d="M634.084 119.137C568.332 5.24096 422.817 -33.8489 308.903 31.9661C110.186 146.705 222.66 432.185 286.211 634.115C290.531 647.756 300.736 657.281 314.602 660.717C328.53 664.091 342.006 660.347 352.128 650.245L587.444 414.924C587.876 414.451 588.329 414.121 588.782 413.628C669.367 340.036 690.928 217.52 634.084 119.137ZM428.989 151.437C476.164 151.437 514.389 189.684 514.389 236.859C514.389 284.014 476.164 322.24 428.989 322.24C381.835 322.24 343.61 284.014 343.61 236.859C343.61 189.684 381.835 151.437 428.989 151.437" fill="#525252" fill-opacity="0.9"/>
<path fill-rule="evenodd" clip-rule="evenodd" d="M546.888 31.918C660.802 97.6919 699.809 243.168 634.057 357.064C519.32 555.867 233.825 443.308 31.8986 379.798C18.2586 375.456 8.73313 365.252 5.29739 351.426C1.92338 337.519 5.6883 324.002 15.7692 313.88L251.107 78.5995C251.58 78.1469 251.909 77.6943 252.362 77.2005C326.014 -3.32471 448.445 -24.9064 546.888 31.918ZM429.003 151.451C476.157 151.451 514.382 189.677 514.382 236.852C514.382 284.007 476.157 322.232 429.003 322.232C381.829 322.232 343.604 284.007 343.604 236.852C343.604 189.677 381.829 151.451 429.003 151.451Z" fill="#525252" fill-opacity="0.9"/>
<path d="M226.321 439.635C387.7 482.611 553.239 497.059 634.057 357.027C640.531 345.813 645.985 334.291 650.457 322.571C661.936 292.257 667.216 259.717 665.736 227.063C664.443 199.513 658.371 172.393 647.864 146.976C643.931 137.516 639.345 128.203 634.084 119.098C621.902 97.9957 606.977 79.4647 590.027 63.6895C577.152 51.7432 562.748 41.0379 546.889 31.8809C539.351 27.5297 531.67 23.6417 523.884 20.2012C499.77 9.59466 474.021 3.02845 447.752 0.809273C409.271 -2.37417 370.689 3.89665 335.451 18.6986C326.452 22.5092 317.585 26.9118 308.903 31.9278C168.938 112.744 183.355 278.265 226.321 439.635ZM428.989 322.201C403.12 322.201 379.939 310.695 364.282 292.523C363.628 291.764 362.986 290.994 362.359 290.212C361.964 289.72 361.575 289.224 361.191 288.723C350.16 274.339 343.604 256.343 343.604 236.816C343.604 214.702 352.003 194.555 365.786 179.39C381.404 162.195 403.937 151.399 428.989 151.399C476.164 151.399 514.389 189.646 514.389 236.821C514.389 283.976 476.164 322.201 428.989 322.201Z" fill="#525252"/>
</svg>
