<svg width="657" height="364" viewBox="0 0 657 364" fill="none" xmlns="http://www.w3.org/2000/svg">
<path d="M592.936 0H497.749C490.569 0 484.749 5.8203 484.749 13V108.187C484.749 115.367 490.569 121.187 497.749 121.187H592.936C600.116 121.187 605.936 115.367 605.936 108.187V13C605.936 5.8203 600.116 0 592.936 0Z" fill="white"/>
<path d="M220.182 143.38C228.372 135.19 242.374 140.99 242.374 152.572V350.562C242.374 357.741 236.554 363.562 229.374 363.562H31.3848C19.803 363.562 14.0028 349.559 22.1924 341.369L220.182 143.38Z" fill="white"/>
<path d="M341.369 143.38C349.559 135.19 363.561 140.99 363.561 152.572V350.562C363.561 357.741 357.741 363.562 350.561 363.562H152.572C140.99 363.562 135.19 349.559 143.379 341.369L341.369 143.38Z" fill="white"/>
<path d="M344.749 363.562C333.167 363.562 327.367 349.559 335.557 341.369L475.556 201.37C480.633 196.293 488.864 196.293 493.941 201.37L633.94 341.369C642.129 349.559 636.329 363.562 624.747 363.562H344.749Z" fill="white"/>
</svg>
