<svg width="27" height="24" viewBox="0 0 27 24" fill="none" xmlns="http://www.w3.org/2000/svg">
<path fill-rule="evenodd" clip-rule="evenodd" d="M16.7018 1.57193C16.7018 1.02171 16.7018 0.746591 16.5946 0.536431C16.5005 0.351569 16.3502 0.201273 16.1654 0.107082C15.9551 0 15.6801 0 15.1298 0H3.73582C2.24683 0 0.95816 1.06544 0.731139 2.52135C-0.243713 8.66261 -0.243713 14.9097 0.731139 21.0576C0.964836 22.5135 2.24683 23.5789 3.74249 23.5789H23.0058C24.5549 23.5723 25.8503 22.4209 26.0306 20.8921C26.6849 15.2671 26.7049 8.25226 26.0105 2.6471C25.8236 1.13163 24.5282 0 22.9858 0H22.2035C21.6533 0 21.3781 0 21.168 0.107082C20.9831 0.201273 20.8329 0.351569 20.7386 0.536431C20.6316 0.746591 20.6316 1.02171 20.6316 1.57193V8.20621C20.6316 8.4168 20.6316 8.5221 20.5872 8.58546C20.5485 8.6408 20.4887 8.67779 20.4219 8.68766C20.3453 8.69901 20.2511 8.65193 20.0629 8.55776L19.3697 8.21115C19.1119 8.08227 18.983 8.0178 18.8478 7.99245C18.7281 7.96998 18.6053 7.96998 18.4855 7.99245C18.3503 8.0178 18.2214 8.08227 17.9637 8.21115L17.2705 8.55776C17.0821 8.65193 16.988 8.69901 16.9115 8.68766C16.8447 8.67779 16.7848 8.6408 16.7461 8.58546C16.7018 8.5221 16.7018 8.4168 16.7018 8.20621V1.57193ZM5.53313 15.4542C5.43487 15.5516 5.38574 15.6003 5.36749 15.6581C5.35178 15.7079 5.35274 15.7647 5.37012 15.8139C5.39032 15.8711 5.43951 15.9166 5.53788 16.0077C7.67215 17.9846 10.4393 19.0687 13.3775 19.0687C16.3157 19.0687 19.0829 17.9846 21.2171 16.0077C21.3155 15.9166 21.3647 15.8711 21.3849 15.8139C21.4022 15.7647 21.4032 15.7079 21.3875 15.6581C21.3692 15.6003 21.3202 15.5516 21.2219 15.4542L19.777 14.0223C19.68 13.9261 19.6315 13.8781 19.5776 13.8598C19.5287 13.8433 19.4803 13.8422 19.4307 13.8566C19.3761 13.8724 19.3233 13.9203 19.2178 14.0161C17.6186 15.4676 15.5634 16.2628 13.3775 16.2628C11.1916 16.2628 9.1364 15.4676 7.53723 14.0161C7.43172 13.9203 7.37888 13.8724 7.32423 13.8566C7.27469 13.8422 7.22628 13.8433 7.17742 13.8598C7.12349 13.8781 7.075 13.9261 6.978 14.0223L5.53313 15.4542Z" fill="white"/>
</svg>
