<svg width="29" height="49" viewBox="0 0 29 49" fill="none" xmlns="http://www.w3.org/2000/svg">
<path d="M19.24 7.00003C19.24 5.16003 18.32 3.77003 14.24 3.77003C10.16 3.77003 9.24 5.16003 9.24 7.00003V12C9.22944 12.818 9.40383 13.6278 9.75015 14.3689C10.0965 15.1101 10.6058 15.7634 11.24 16.28L25 28.18C25.9314 28.8524 26.7016 29.7233 27.2551 30.7299C27.8085 31.7364 28.1313 32.8534 28.2 34V41.52C28.2 46 22.93 48.52 14.2 48.52C4.61 48.47 0 46.3 0 41.49V35H8.7V41.26C8.7 43.51 10.41 44.82 14.23 44.82C17.79 44.82 19.5 43.51 19.5 41.26V34.57C19.5 32.92 18.84 31.67 16.99 30.02L4.22 18.88C1.85 16.88 0.53 15.26 0.53 12.82V7.09003C0.53 2.41003 5.41 0.0900269 14.23 0.0900269C24 0.100027 27.94 2.41003 27.94 6.76003V12.82H19.24V7.00003Z" fill="white"/>
</svg>
