<svg width="34" height="36" viewBox="0 0 34 36" fill="none" xmlns="http://www.w3.org/2000/svg">
<path d="M14.6227 0.26628C18.2786 -0.365203 22.5597 0.0244905 25.1393 2.54753L25.1432 2.55144C26.4172 3.80281 26.9108 5.40762 27.0583 6.82976C27.2055 8.24995 27.0349 9.70759 26.7702 10.985C26.2418 13.5344 25.2254 15.8935 24.7175 16.8805C24.2678 17.7542 23.2613 19.6248 21.818 21.2829C20.4634 22.8392 18.1732 24.8412 15.1237 24.695L15.1042 24.694L15.0856 24.693C14.0988 24.6314 13.133 24.3757 12.2448 23.9411C11.3568 23.5065 10.563 22.9012 9.90886 22.1598C9.25466 21.4184 8.75295 20.5551 8.4323 19.6198C8.11171 18.6846 7.97808 17.6954 8.03972 16.7087C8.10139 15.7219 8.35717 14.7568 8.79167 13.8688C9.2263 12.9807 9.83151 12.1861 10.5729 11.5319C11.3144 10.8777 12.1776 10.376 13.113 10.0553C14.0482 9.73469 15.0381 9.60108 16.0251 9.66276C17.4851 9.75424 18.5946 11.0123 18.5036 12.4723C18.4123 13.9327 17.1544 15.0431 15.694 14.9518C15.4018 14.9336 15.1088 14.9731 14.8317 15.068C14.5546 15.163 14.2984 15.3117 14.0788 15.5055C13.8592 15.6993 13.6802 15.9349 13.5514 16.1979C13.4228 16.4609 13.3471 16.7466 13.3288 17.0387C13.3105 17.331 13.3501 17.624 13.445 17.901C13.54 18.1782 13.6887 18.4343 13.8825 18.654C14.0763 18.8736 14.3118 19.0526 14.5749 19.1813C14.8326 19.3074 15.112 19.3818 15.3981 19.402C15.906 19.4156 16.7371 19.0495 17.821 17.8044C18.8312 16.6437 19.6028 15.2381 20.0055 14.4557C20.3499 13.7866 21.1725 11.8839 21.5817 9.90983C21.7857 8.92566 21.8581 8.05601 21.7878 7.37663C21.7178 6.70142 21.5335 6.43361 21.4313 6.33269C20.672 5.59378 18.5621 4.96339 15.5251 5.48796C12.6441 5.98559 9.76672 7.40961 7.98112 9.54851L7.97624 9.55534L7.76433 9.81706C5.61814 12.5738 4.83323 16.8312 5.5612 20.945C6.31826 25.2228 8.53283 28.4737 11.3561 29.5846C16.0282 31.3519 24.5537 28.1673 27.9352 18.9675C28.44 17.5941 29.9632 16.8894 31.3366 17.3942C32.71 17.899 33.4136 19.4222 32.9089 20.7956C28.7919 31.9964 17.6022 37.6288 9.46257 34.5339L9.45085 34.53L9.44011 34.5251L8.95769 34.3249C4.04982 32.1559 1.24857 26.9829 0.343428 21.8678C-0.59762 16.5497 0.331946 10.4158 3.9196 6.14616C6.68789 2.83431 10.8094 0.925023 14.6227 0.26628Z" fill="white"/>
</svg>
